<svg xmlns="http://www.w3.org/2000/svg" version="1.1" xmlns:xlink="http://www.w3.org/1999/xlink" xmlns:svgjs="http://svgjs.dev/svgjs" width="1500" height="462" viewBox="0 0 1500 462"><g transform="matrix(1,0,0,1,-0.9090909090909918,-1.0827501385963672)"><svg viewBox="0 0 396 122" data-background-color="#ffffff" preserveAspectRatio="xMidYMid meet" height="462" width="1500" xmlns="http://www.w3.org/2000/svg" xmlns:xlink="http://www.w3.org/1999/xlink"><g id="tight-bounds" transform="matrix(1,0,0,1,0.2400000000000091,0.2859210322700392)"><svg viewBox="0 0 395.52 121.42815793545994" height="121.42815793545994" width="395.52"><g><svg viewBox="0 0 601.0060964686461 184.5142172384937" height="121.42815793545994" width="395.52"><g transform="matrix(1,0,0,1,205.48609646864608,57.017571331528416)"><svg viewBox="0 0 395.52 70.47907457543687" height="70.47907457543687" width="395.52"><g id="textblocktransform"><svg viewBox="0 0 395.52 70.47907457543687" height="70.47907457543687" width="395.52" id="textblock"><g><svg viewBox="0 0 395.52 70.47907457543687" height="70.47907457543687" width="395.52"><g transform="matrix(1,0,0,1,0,0)"><svg width="395.52" viewBox="1.9 -35.6 203.14 36.2" height="70.47907457543687" data-palette-color="#ffffff"><path d="M14.65 0.6L14.65 0.6Q10.95 0.6 8.05-1.58 5.15-3.75 3.53-7.8 1.9-11.85 1.9-17.5L1.9-17.5Q1.9-23.1 3.55-27.15 5.2-31.2 8.22-33.4 11.25-35.6 15.4-35.6L15.4-35.6Q20.35-35.6 23.48-32.7 26.6-29.8 27.2-24.9L27.2-24.9 22.55-24.9Q22.05-27.9 20.23-29.78 18.4-31.65 15.4-31.65L15.4-31.65Q11.1-31.65 8.65-27.9 6.2-24.15 6.2-17.5L6.2-17.5Q6.2-10.75 8.65-7.05 11.1-3.35 15-3.35L15-3.35Q17.8-3.35 19.6-5.03 21.4-6.7 22.33-9.33 23.25-11.95 23.35-14.75L23.35-14.75 15.55-14.75 15.55-18.35 27.65-18.35 27.65 0 23.8 0 23.45-5.3 23.25-5.3Q22.2-2.6 20.18-1 18.15 0.6 14.65 0.6ZM45.25 0.6L45.25 0.6Q41.75 0.6 39.07-1.03 36.4-2.65 34.85-5.58 33.3-8.5 33.3-12.4L33.3-12.4Q33.3-16.3 34.82-19.23 36.35-22.15 39.05-23.78 41.75-25.4 45.35-25.4L45.35-25.4Q48.95-25.4 51.5-23.78 54.05-22.15 55.4-19.5 56.75-16.85 56.75-13.8L56.75-13.8Q56.75-13.25 56.72-12.7 56.7-12.15 56.7-11.45L56.7-11.45 37.45-11.45Q37.6-8.7 38.72-6.88 39.85-5.05 41.57-4.15 43.3-3.25 45.25-3.25L45.25-3.25Q48-3.25 49.55-4.4 51.1-5.55 51.9-7.6L51.9-7.6 56.05-7.6Q55.2-4.15 52.5-1.78 49.8 0.6 45.25 0.6ZM45.25-21.65L45.25-21.65Q42.35-21.65 40.17-19.9 38-18.15 37.5-15L37.5-15 52.6-15Q52.4-18.1 50.37-19.88 48.35-21.65 45.25-21.65ZM68.59 0L64.4 0 64.4-24.8 67.9-24.8 68.34-21.05 68.59-21.05Q69.59-22.85 71.75-24.13 73.9-25.4 76.7-25.4L76.7-25.4Q81.25-25.4 83.52-22.7 85.8-20 85.8-14.9L85.8-14.9 85.8 0 81.59 0 81.59-14.4Q81.59-17.7 80.15-19.58 78.7-21.45 75.65-21.45L75.65-21.45Q72.7-21.45 70.65-19.43 68.59-17.4 68.59-13.6L68.59-13.6 68.59 0ZM105.24 0.6L105.24 0.6Q101.74 0.6 99.07-1.03 96.39-2.65 94.84-5.58 93.29-8.5 93.29-12.4L93.29-12.4Q93.29-16.3 94.82-19.23 96.34-22.15 99.04-23.78 101.74-25.4 105.34-25.4L105.34-25.4Q108.94-25.4 111.49-23.78 114.04-22.15 115.39-19.5 116.74-16.85 116.74-13.8L116.74-13.8Q116.74-13.25 116.72-12.7 116.69-12.15 116.69-11.45L116.69-11.45 97.44-11.45Q97.59-8.7 98.72-6.88 99.84-5.05 101.57-4.15 103.29-3.25 105.24-3.25L105.24-3.25Q107.99-3.25 109.54-4.4 111.09-5.55 111.89-7.6L111.89-7.6 116.04-7.6Q115.19-4.15 112.49-1.78 109.79 0.6 105.24 0.6ZM105.24-21.65L105.24-21.65Q102.34-21.65 100.17-19.9 97.99-18.15 97.49-15L97.49-15 112.59-15Q112.39-18.1 110.37-19.88 108.34-21.65 105.24-21.65ZM142.54 0L124.19 0 124.19-3.6 130.54-3.6 130.54-19.95Q130.54-21.2 129.34-21.2L129.34-21.2 124.84-21.2 124.84-24.8 130.89-24.8Q132.54-24.8 133.54-23.9 134.54-23 134.54-21.25L134.54-21.25 134.54-20.2 134.74-20.2Q135.34-22.7 137.02-24.05 138.69-25.4 141.69-25.4L141.69-25.4 146.24-25.4 146.24-20.95 141.09-20.95Q138.04-20.95 136.39-18.93 134.74-16.9 134.74-13.75L134.74-13.75 134.74-3.6 142.54-3.6 142.54 0ZM156.24 0L151.64 0 162.59-35 167.44-35 178.34 0 173.74 0 171.19-8.7 158.79-8.7 156.24 0ZM165.09-29.1L164.89-29.1 159.84-12.2 170.14-12.2 165.09-29.1ZM205.04 0L184.94 0 184.94-3.65 192.89-3.65 192.89-31.35 184.94-31.35 184.94-35 205.04-35 205.04-31.35 197.09-31.35 197.09-3.65 205.04-3.65 205.04 0Z" opacity="1" transform="matrix(1,0,0,1,0,0)" fill="#ffffff" class="wordmark-text-0" data-fill-palette-color="primary" id="text-0"></path></svg></g></svg></g></svg></g></svg></g><g><svg viewBox="0 0 188.84767845917526 184.5142172384937" height="184.5142172384937" width="188.84767845917526"><g><svg xmlns="http://www.w3.org/2000/svg" xmlns:xlink="http://www.w3.org/1999/xlink" version="1.1" x="0" y="0" viewBox="8.6 9.6 82.80000000000001 80.9" style="enable-background:new 0 0 100 100;" xml:space="preserve" height="184.5142172384937" width="188.84767845917526" class="icon-icon-0" data-fill-palette-color="accent" id="icon-0"><g fill="#958af0" data-fill-palette-color="accent"><path d="M50 60.4C55.7 60.4 60.4 55.7 60.4 50 60.4 47.7 59.6 45.4 58.2 43.6L74.1 27.7C76 29.4 78.5 30.4 81 30.4 86.7 30.4 91.4 25.7 91.4 20S86.7 9.6 81 9.6 70.6 14.3 70.6 20C70.6 21.3 70.8 22.4 71.3 23.7L54.4 40.6C53 39.9 51.5 39.6 50 39.6 44.3 39.6 39.6 44.3 39.6 50S44.3 60.4 50 60.4" fill="#958af0" data-fill-palette-color="accent"></path><path d="M50 30.4C55.7 30.4 60.4 25.7 60.4 20S55.7 9.6 50 9.6 39.6 14.3 39.6 20 44.3 30.4 50 30.4" fill="#958af0" data-fill-palette-color="accent"></path><path d="M81 39.6C75.3 39.6 70.6 44.3 70.6 50S75.3 60.4 81 60.4 91.4 55.7 91.4 50 86.7 39.6 81 39.6" fill="#958af0" data-fill-palette-color="accent"></path><path d="M19 69.6C13.3 69.6 8.6 74.3 8.6 80S13.3 90.4 19 90.4 29.4 85.7 29.4 80 24.7 69.6 19 69.6" fill="#958af0" data-fill-palette-color="accent"></path><path d="M81 69.6C76.2 69.6 72 72.9 70.9 77.6H60.1C59 72.9 54.8 69.6 50 69.6 47 69.6 44.2 70.9 42.3 73.1L26.3 57.3C28.2 55.3 29.3 52.7 29.3 50 29.3 45.2 26 41 21.3 39.9V30.1C26 29 29.3 24.8 29.3 20 29.3 14.3 24.6 9.6 18.9 9.6S8.6 14.3 8.6 20C8.6 24.8 11.9 29 16.6 30.1V39.9C11.9 41 8.6 45.2 8.6 50 8.6 55.7 13.3 60.4 19 60.4 20.1 60.4 21.2 60.2 22.2 59.9L39.9 77.6C39.7 78.5 39.6 79.2 39.6 80.1 39.6 85.8 44.3 90.5 50 90.5 54.8 90.5 59 87.2 60.1 82.5H70.9C72 87.2 76.2 90.5 81 90.5 86.7 90.5 91.4 85.8 91.4 80.1S86.7 69.6 81 69.6" fill="#958af0" data-fill-palette-color="accent"></path></g></svg></g></svg></g></svg></g><defs></defs></svg><rect width="395.52" height="121.42815793545994" fill="none" stroke="none" visibility="hidden"></rect></g></svg></g></svg>